<?xml version="1.0" ?><svg width="64px" height="64px" viewBox="0 0 64 64" style="enable-background:new 0 0 64 64;" version="1.1" xml:space="preserve" xmlns="http://www.w3.org/2000/svg" xmlns:xlink="http://www.w3.org/1999/xlink"><style type="text/css">
	.st0{fill:#FFEEA9;}
	.st1{fill:#D32436;}
	.st2{fill:#8DD1D3;}
	.st3{fill:#330D00;}
	.st4{fill:none;stroke:#330D00;stroke-linecap:round;stroke-linejoin:round;stroke-miterlimit:10;}
</style><g id="_x34_0-Id_Card"/><g id="_x33_9-Formula"/><g id="_x33_8-Elbow"/><g id="_x33_7-Diploma"/><g id="_x33_6-Laptop"/><g id="_x33_5-Brush"/><g id="_x33_4-Baseball"/><g id="_x33_3-Student"/><g id="_x33_2-Highlighter"/><g id="_x33_1-Ruler"/><g id="_x33_0-Caliper"/><g id="_x32_9-Ruler_Elbow"/><g id="_x32_8-Abacus"/><g id="_x32_7-Id_Card"/><g id="_x32_6-Eraser"/><g id="_x32_5-Pencil"/><g id="_x32_4-Ink"/><g id="_x32_3-Graduation_Cap"/><g id="_x32_2-_Sling_Bag"><g><g><polygon class="st2" points="62.9,17.7 62.9,30.9 54.1,30.9 54.1,26.5 47.4,26.5 47.4,30.9 16.6,30.9 16.6,26.5 9.9,26.5      9.9,30.9 1.1,30.9 1.1,17.7    "/></g><g><polygon class="st0" points="62.9,30.9 62.9,53 1.1,53 1.1,30.9 9.9,30.9 9.9,37.5 16.6,37.5 16.6,30.9 47.4,30.9 47.4,37.5      54.1,37.5 54.1,30.9    "/></g><g><rect class="st1" height="11" width="6.6" x="9.9" y="26.5"/></g><g><rect class="st1" height="11" width="6.6" x="47.4" y="26.5"/></g><g><path class="st3" d="M62.9,16.6H41.6l-2-5.9c-0.2-0.5-0.6-0.8-1-0.8H25.4c-0.5,0-0.9,0.3-1,0.8l-2,5.9H1.1C0.5,16.6,0,17,0,17.7     v13.2V53c0,0.6,0.5,1.1,1.1,1.1h61.8c0.6,0,1.1-0.5,1.1-1.1V30.9V17.7C64,17,63.5,16.6,62.9,16.6z M26.2,12.1h11.7l1.5,4.4H24.7     L26.2,12.1z M2.2,18.8h21h17.7h21v11h-6.6v-3.3c0-0.6-0.5-1.1-1.1-1.1h-6.6c-0.6,0-1.1,0.5-1.1,1.1v3.3H17.7v-3.3     c0-0.6-0.5-1.1-1.1-1.1H9.9c-0.6,0-1.1,0.5-1.1,1.1v3.3H2.2V18.8z M48.6,30.9v-3.3H53v3.3v5.5h-4.4V30.9z M11,30.9v-3.3h4.4v3.3     v5.5H11V30.9z M61.8,51.9H2.2V32h6.6v5.5c0,0.6,0.5,1.1,1.1,1.1h6.6c0.6,0,1.1-0.5,1.1-1.1V32h28.7v5.5c0,0.6,0.5,1.1,1.1,1.1     h6.6c0.6,0,1.1-0.5,1.1-1.1V32h6.6V51.9z"/></g></g></g><g id="_x32_1-Rugby_Ball"/><g id="_x32_0-Clock"/><g id="_x31_9-Certificate"/><g id="_x31_8-Idea"/><g id="_x31_7-Bookshelf"/><g id="_x31_6-Formula"/><g id="_x31_5-Bell"/><g id="_x31_4-Magnifying_Glass"/><g id="_x31_3-Calculator"/><g id="_x31_2-Eyeglasses"/><g id="_x31_1-Bus"/><g id="_x31_0-Trophy"/><g id="_x39_-Globe"/><g id="_x38_-Basket_Ball"/><g id="_x37_-Pen"/><g id="_x36_-Board"/><g id="_x35_-Bag"/><g id="_x34_-Exam"/><g id="_x33_-Book"/><g id="_x32_-Ruler"/><g id="_x31_-Building"/></svg>